<!DOCTYPE svg PUBLIC "-//W3C//DTD SVG 1.1//EN" "http://www.w3.org/Graphics/SVG/1.1/DTD/svg11.dtd">
<!-- Uploaded to: SVG Repo, www.svgrepo.com, Transformed by: SVG Repo Mixer Tools -->
<svg width="100px" height="100px" viewBox="-2.4 -2.4 28.80 28.80" data-name="025_SCIENCE" id="_025_SCIENCE" xmlns="http://www.w3.org/2000/svg" fill="#fff" stroke="#fff">
<g id="SVGRepo_bgCarrier" stroke-width="0">
<path transform="translate(-2.4, -2.4), scale(0.8999999999999999)" d="M16,29.08107028156519C18.400929836359026,29.039615653887964,20.943060539050247,29.36420338095793,23.021086205454434,28.160878032168057C25.098377125713625,26.95797815389835,26.436172434728977,24.765883279715688,27.311678078757694,22.530800383757146C28.12154229954781,20.46329381737183,28.038062514468987,18.205954644520286,27.784630936953953,16C27.55165070186517,13.97206079560058,26.544153414740734,12.220119154910048,25.904434329154164,10.281672173891877C25.090668883176917,7.815838017068009,25.409934556084252,4.7697837830111185,23.498468791079876,3.012271074880088C21.57125846000782,1.2402818977195949,18.61794238872404,1.1964760148269293,16.000000000000004,1.1749596608912256C13.368090529129063,1.1533285142525895,10.25379683063542,0.9907204973212222,8.430029530078176,2.8884265342993434C6.5544827518732625,4.840011280087267,8.067181083292592,8.298708097414217,6.836817247069524,10.709633970961846C5.704318878499919,12.928790238522947,1.9510318307475374,13.517627344675352,1.7388218056191427,15.999999999999998C1.5319506122674287,18.419920516196015,4.679107066568756,19.731666287498342,5.885343878799473,21.83969943433561C7.097830715609777,23.958655195081462,6.852474628242582,26.984619012028656,8.837523941717597,28.405772440940773C10.821201798795043,29.82594400509579,13.560719104435515,29.12318708139602,16,29.08107028156519" fill="#ab85eb" strokewidth="0"/>
</g>
<g id="SVGRepo_tracerCarrier" stroke-linecap="round" stroke-linejoin="round"/>
<g id="SVGRepo_iconCarrier">
<defs>
<style>.cls-1{fill:#282c34;}</style>
</defs>
<path class="cls-1" d="M16,13H8a3,3,0,0,1-3-3V6A3,3,0,0,1,8,3h8a3,3,0,0,1,3,3v4A3,3,0,0,1,16,13ZM8,5A1,1,0,0,0,7,6v4a1,1,0,0,0,1,1h8a1,1,0,0,0,1-1V6a1,1,0,0,0-1-1Z"/>
<path class="cls-1" d="M10,9a1.05,1.05,0,0,1-.71-.29A1,1,0,0,1,10.19,7a.6.6,0,0,1,.19.06.56.56,0,0,1,.17.09l.16.12A1,1,0,0,1,10,9Z"/>
<path class="cls-1" d="M14,9a1,1,0,0,1-.71-1.71,1,1,0,0,1,1.42,1.42,1,1,0,0,1-.16.12.56.56,0,0,1-.17.09.6.6,0,0,1-.19.06Z"/>
<path class="cls-1" d="M12,4a1,1,0,0,1-1-1V2a1,1,0,0,1,2,0V3A1,1,0,0,1,12,4Z"/>
<path class="cls-1" d="M9,22a1,1,0,0,1-1-1V18a1,1,0,0,1,2,0v3A1,1,0,0,1,9,22Z"/>
<path class="cls-1" d="M15,22a1,1,0,0,1-1-1V18a1,1,0,0,1,2,0v3A1,1,0,0,1,15,22Z"/>
<path class="cls-1" d="M15,19H9a1,1,0,0,1-1-1V12a1,1,0,0,1,1-1h6a1,1,0,0,1,1,1v6A1,1,0,0,1,15,19Zm-5-2h4V13H10Z"/>
<path class="cls-1" d="M5,17a1,1,0,0,1-.89-.55,1,1,0,0,1,.44-1.34l4-2a1,1,0,1,1,.9,1.78l-4,2A.93.93,0,0,1,5,17Z"/>
<path class="cls-1" d="M19,17a.93.93,0,0,1-.45-.11l-4-2a1,1,0,1,1,.9-1.78l4,2a1,1,0,0,1,.44,1.34A1,1,0,0,1,19,17Z"/>
</g>
</svg>